<?xml version="1.0" standalone="no"?>
<!DOCTYPE svg PUBLIC "-//W3C//DTD SVG 20010904//EN"
 "http://www.w3.org/TR/2001/REC-SVG-20010904/DTD/svg10.dtd">
<svg version="1.0" xmlns="http://www.w3.org/2000/svg"
 width="700.000000pt" height="700.000000pt" viewBox="0 0 700.000000 700.000000"
 preserveAspectRatio="xMidYMid meet">
<metadata>
Created by potrace 1.11, written by Peter Selinger 2001-2013
</metadata>
<g transform="translate(0.000000,700.000000) scale(0.100000,-0.100000)"
fill="#000000" stroke="none">
<path d="M3278 6995 c-2 -1 -42 -5 -89 -9 -47 -4 -95 -8 -105 -10 -10 -2 -46
-7 -79 -11 -32 -4 -68 -9 -80 -11 -11 -2 -45 -8 -75 -14 -364 -67 -780 -221
-1100 -408 -81 -47 -281 -177 -314 -203 -6 -5 -49 -39 -96 -76 -217 -170 -453
-407 -610 -613 -19 -25 -38 -49 -43 -55 -133 -168 -348 -553 -440 -790 -66
-170 -140 -410 -162 -526 -3 -13 -11 -58 -20 -99 -29 -147 -35 -194 -52 -370
-15 -163 -8 -589 12 -711 2 -13 6 -46 10 -74 12 -98 23 -161 50 -285 30 -141
110 -393 173 -551 50 -123 156 -336 226 -453 36 -60 66 -111 66 -113 0 -2 5
-9 10 -16 6 -7 40 -55 76 -107 72 -102 218 -287 244 -307 31 -25 65 -31 102
-18 l36 12 81 -81 c58 -58 78 -85 71 -92 -6 -6 -11 -31 -12 -55 0 -41 3 -47
60 -100 34 -30 105 -89 159 -130 54 -41 100 -77 101 -81 2 -5 8 -8 13 -8 6 0
40 -21 76 -46 130 -91 391 -232 568 -306 271 -115 675 -224 930 -252 261 -28
673 -28 865 0 300 44 506 94 749 181 86 30 161 58 166 63 6 4 21 11 35 15 34
10 357 171 391 196 15 10 30 19 33 19 8 0 232 152 306 207 37 27 88 51 155 73
253 83 518 206 701 325 269 176 450 400 510 630 19 73 25 235 12 310 -16 95
-69 218 -127 295 l-39 52 14 47 c70 221 131 527 152 761 9 101 8 472 -1 589
-10 135 -43 351 -72 471 -3 14 -8 36 -11 50 -9 45 -64 236 -93 321 -57 169
-179 444 -257 579 -156 270 -381 577 -454 618 -36 20 -73 20 -97 0 -20 -16
-192 154 -176 174 14 17 18 56 9 88 -4 14 -32 45 -62 70 -31 25 -63 52 -73 61
-37 35 -240 181 -310 224 -9 6 -46 28 -81 51 -97 61 -298 163 -446 226 -297
127 -650 221 -959 254 -27 3 -63 8 -80 10 -33 5 -542 14 -547 9z"/>
</g>
</svg>
