<?xml version="1.0" standalone="no"?>
<!DOCTYPE svg PUBLIC "-//W3C//DTD SVG 20010904//EN"
 "http://www.w3.org/TR/2001/REC-SVG-20010904/DTD/svg10.dtd">
<svg version="1.0" xmlns="http://www.w3.org/2000/svg"
 width="640.000000pt" height="640.000000pt" viewBox="0 0 640.000000 640.000000"
 preserveAspectRatio="xMidYMid meet">
<metadata>
Created by potrace 1.11, written by Peter Selinger 2001-2013
</metadata>
<g transform="translate(0.000000,640.000000) scale(0.100000,-0.100000)"
fill="#000000" stroke="none">
<path d="M2289 5737 c-37 -12 -82 -34 -100 -49 -31 -24 -1750 -1543 -2041
-1804 -192 -172 -193 -195 -24 -389 58 -66 118 -128 133 -137 38 -24 110 -23
148 1 17 11 75 60 130 109 l100 90 5 -862 5 -861 23 -45 c35 -72 75 -114 144
-151 l63 -34 923 -3 922 -2 0 639 0 640 -349 3 c-335 3 -351 4 -377 24 -15 11
-37 33 -48 48 -20 27 -21 39 -21 406 0 367 1 379 21 406 11 15 33 37 48 48 27
20 39 21 406 21 367 0 379 -1 406 -21 67 -50 69 -55 72 -285 l3 -210 66 55
c36 30 93 68 127 85 124 61 121 61 908 61 l716 0 41 48 c53 61 68 108 52 162
-13 43 -32 61 -446 427 l-180 159 -5 511 c-5 497 -6 512 -26 539 -51 68 -53
69 -294 69 -205 0 -220 -1 -246 -21 -68 -50 -69 -54 -74 -299 l-5 -224 -435
386 c-239 212 -453 399 -474 415 -47 34 -152 68 -210 68 -22 0 -71 -11 -107
-23z"/>
<path d="M3247 3186 c-62 -22 -112 -61 -146 -112 -63 -96 -61 -66 -61 -971 l0
-823 -206 0 -206 0 -34 -34 -34 -34 0 -98 c0 -155 32 -245 121 -339 55 -58
126 -101 203 -121 75 -20 3116 -20 3191 0 151 40 271 160 311 310 8 28 14 95
14 150 l0 98 -34 34 -34 34 -206 0 -206 0 -2 843 -3 842 -22 48 c-34 72 -75
120 -135 153 l-53 29 -1210 2 c-1000 2 -1217 0 -1248 -11z m2193 -1186 l0
-720 -960 0 -960 0 0 720 0 720 960 0 960 0 0 -720z"/>
</g>
</svg>
